<svg width="21" height="21" viewBox="0 0 21 21" fill="none" xmlns="http://www.w3.org/2000/svg">
<path d="M6.76348 1.00991C6.44766 0.247019 5.61504 -0.159036 4.81934 0.0583467L1.20996 1.04272C0.496289 1.2396 0 1.88764 0 2.62592C0 12.7732 8.22773 21.0009 18.375 21.0009C19.1133 21.0009 19.7613 20.5046 19.9582 19.791L20.9426 16.1816C21.16 15.3859 20.7539 14.5533 19.991 14.2374L16.0535 12.5968C15.385 12.3179 14.6098 12.5107 14.1545 13.0726L12.4975 15.0947C9.60996 13.7289 7.27207 11.391 5.90625 8.50346L7.92832 6.85053C8.49023 6.39116 8.68301 5.62007 8.4041 4.95151L6.76348 1.01401V1.00991Z" fill="white"/>
</svg>
