<svg width="42" height="37" viewBox="0 0 42 37" fill="none" xmlns="http://www.w3.org/2000/svg">
<path d="M41.989 18.4639C41.989 19.7646 40.8951 20.7836 39.6555 20.7836H37.3219L37.373 32.3605C37.373 32.5557 37.3584 32.7508 37.3365 32.9459V34.1094C37.3365 35.7064 36.0312 37 34.4196 37H33.2528C33.1726 37 33.0924 37 33.0122 36.9928C32.9101 37 32.808 37 32.7059 37H30.3359H28.5858C26.9742 37 25.6688 35.7064 25.6688 34.1094V32.375V27.75C25.6688 26.4709 24.6261 25.4375 23.3353 25.4375H18.6683C17.3775 25.4375 16.3347 26.4709 16.3347 27.75V32.375V34.1094C16.3347 35.7064 15.0294 37 13.4178 37H11.6677H9.34142C9.23204 37 9.12265 36.9928 9.01327 36.9855C8.92576 36.9928 8.83825 37 8.75074 37H7.58398C5.97238 37 4.66706 35.7064 4.66706 34.1094V26.0156C4.66706 25.9506 4.66706 25.8783 4.67436 25.8133V20.7836H2.33353C1.02092 20.7836 0 19.7719 0 18.4639C0 17.8135 0.218769 17.2354 0.729229 16.7295L19.4267 0.578125C19.9371 0.0722656 20.5205 0 21.031 0C21.5414 0 22.1248 0.144531 22.5623 0.505859L41.1868 16.7295C41.7702 17.2354 42.0619 17.8135 41.989 18.4639Z" fill="#B7AB98"/>
</svg>
